<svg width="200" height="200" viewBox="0 0 200 200" fill="none" xmlns="http://www.w3.org/2000/svg">
<path fill-rule="evenodd" clip-rule="evenodd" d="M46.3638 100.338V100.38C53.082 90.0851 56.4708 79.6258 56.5123 67.2509C56.5536 54.8761 52.8806 44.2586 46.3638 34H46.3223C40.4335 43.6566 36.6895 53.7449 36.334 65.0132C35.9422 77.582 39.4548 89.9529 46.3638 100.338ZM46.3638 97.9052V97.8688C44.5002 94.1493 43.5235 90.029 43.5141 85.8465C43.5169 81.6885 44.4943 77.5924 46.3638 73.9035V73.861C48.2362 77.5823 49.2131 81.7099 49.2131 85.8983C49.2131 90.0867 48.2362 94.2141 46.3638 97.9356V97.9052ZM38.828 64.6969C39.4974 55.5753 42.1871 47.3478 46.3223 39.1019L46.3638 39.1384C51.0317 47.5359 53.6726 56.9587 54.0655 66.6185C54.272 70.9888 53.9053 75.3678 52.9754 79.6378C53.1922 75.3062 52.9159 70.9633 52.1519 66.6975C51.0646 60.8316 49.1128 55.1702 46.3638 49.9079L46.3223 49.8592C43.9056 54.6374 42.0958 59.7138 40.9371 64.9644C39.9829 69.8023 39.5518 74.7334 39.6516 79.6683C38.9465 74.6637 38.4667 69.7684 38.828 64.7272V64.6969Z" fill="white"/>
<path fill-rule="evenodd" clip-rule="evenodd" d="M36.0491 112.554C37.9983 110.59 39.8347 109.593 42.6075 109.873C47.0566 110.31 49.9002 113.041 50.1372 117.565C50.5698 126.218 39.4023 131.466 32.4235 131.065C22.3105 130.542 15.5983 123.853 13.9987 114.324C13.0271 108.51 15.1303 102.162 19.1173 97.7348C23.1044 93.3079 28.4007 91.6538 33.9282 91.5686V65.5664C14.9999 65.5664 1.03033 79.3519 0.0528111 98.2153C-1.00172 119.243 13.8684 133.485 32.8381 134.19C42.9095 134.586 50.4394 130.706 57.3473 124.017V101.621H36.0196V112.566L36.0491 112.554Z" fill="white"/>
<path fill-rule="evenodd" clip-rule="evenodd" d="M62.5137 110.628H199.555V134.223H62.5137V110.628ZM66.9639 129.199V116.254H70.9138L72.6453 124.663L74.3768 116.254H78.3267V129.199H76.0181V117.473H76L73.5291 129.199H71.7615L69.2905 117.491H69.2725V129.199H66.9639ZM81.5566 129.199V116.254H88.5185V118.226H84.0275V121.238H88.1217V123.211H84.0275V127.227H88.5185V129.199H81.5566ZM94.1689 121.866L90.8682 116.254H93.6639L96.6579 121.866V116.254H99.1288V121.866L102.123 116.254H104.918L101.618 121.866L105.027 129.199H102.267L100.103 124.035L99.1288 125.308V129.199H96.6579V125.308L95.6839 124.035L93.5196 129.199H90.76L94.1689 121.866ZM112.037 123.928H109.873V129.199H107.402V116.254H112.073C114.183 116.254 115.5 117.957 115.5 120.037C115.5 122.171 114.147 123.928 112.037 123.928ZM111.117 118.173H109.873V122.009H111.117C112.362 122.009 112.975 121.31 112.975 120.073C112.975 118.854 112.362 118.173 111.117 118.173ZM117.963 129.199V116.254H124.925V118.226H120.434V121.238H124.528V123.211H120.434V127.227H124.925V129.199H117.963ZM127.665 129.199V116.254H134.501V118.226H130.136V129.199H127.665ZM136.535 129.199V116.254H138.844V121.095C138.844 122.637 138.772 124.591 138.537 125.667H138.556L142.163 116.254H144.832V129.199H142.523V124.304C142.523 122.332 142.578 120.969 142.83 119.804H142.812L139.205 129.199H136.535ZM147.511 125.147V120.45C147.511 117.186 149.278 116.021 151.749 116.021C154.256 116.021 155.934 117.151 155.934 120.45V125.147C155.934 128.446 154.256 129.504 151.749 129.504C149.278 129.504 147.511 128.41 147.511 125.147ZM153.408 120.199C153.408 118.818 152.813 117.993 151.749 117.993C150.577 117.993 150.036 118.782 150.036 120.163V125.452C150.036 126.797 150.577 127.532 151.749 127.532C152.813 127.532 153.408 126.814 153.408 125.452V120.199ZM158.836 116.254H161.307V121.238H164.571V116.254H167.042V129.199H164.571V123.211H161.307V129.199H158.836V116.254ZM170.48 129.199V116.254H177.316V118.226H172.951V129.199H170.48ZM179.812 129.199H177.161L180.461 116.254H183.78L186.666 129.199H183.996L183.383 125.828H180.588L179.812 129.199ZM182.085 117.886L180.894 123.91H183.077L182.085 117.886ZM191.698 117.993C190.724 117.993 190.219 118.818 190.219 119.983H187.82C187.82 117.724 189.245 116.021 191.698 116.021C193.447 116.021 195.593 116.846 195.593 119.463C195.593 120.808 194.782 121.974 193.591 122.278C194.89 122.601 195.774 123.659 195.774 125.613C195.774 128.213 194.349 129.504 191.77 129.504C189.642 129.504 187.621 128.536 187.621 125.757H190.02C190.02 126.653 190.381 127.532 191.626 127.532C192.816 127.532 193.249 126.725 193.249 125.38C193.249 123.856 192.473 123.3 191.445 123.3H190.922V121.454H191.445C192.365 121.454 193.068 120.952 193.068 119.804C193.068 118.943 192.744 117.993 191.698 117.993Z" fill="white"/>
<path d="M62.5137 73.4601V99.6705H68.7804V78.4247H77.0757V73.4601H62.5137ZM81.9227 73.4601L76.2718 99.6705H82.5023L83.2992 94.4138H88.0808L89.0226 99.6705H95.1807L89.4211 73.4601H81.9227ZM83.915 89.7047L85.5451 78.1692H85.5813L87.2476 89.7047H83.915ZM102.216 81.4546C102.216 78.7533 102.724 77.5851 104.317 77.5851C105.803 77.5851 106.418 78.8263 106.418 80.7975C106.418 82.6593 105.44 83.6814 104.535 83.6814H103.05V88.3905H103.955C105.947 88.3905 106.708 89.3762 106.708 91.822C106.708 94.7424 106.056 95.582 104.426 95.582C103.05 95.582 102.216 94.7424 102.216 91.822H96.4568C96.4568 98.5754 100.804 100.291 104.68 100.291C109.642 100.291 112.975 97.8453 112.975 92.6616C112.975 87.9525 111.091 86.8573 108.447 85.8717H108.374C111.019 84.7036 112.069 83.0608 112.069 79.8119C112.069 76.1249 109.28 72.876 104.317 72.876C99.8256 72.876 96.4568 76.0154 96.4568 81.4546H102.216ZM116.319 73.4601V99.6705H122.586V78.4247H126.679V99.6705H132.946V73.4601H116.319ZM142.82 89.4492H145.646C149.341 89.4492 153.253 87.916 153.253 81.4546C153.253 74.7742 149.268 73.4601 145.646 73.4601H136.554V99.6705H142.82V89.4492ZM142.82 78.1692H143.835C145.646 78.1692 146.986 78.7898 146.986 81.3816C146.986 83.9735 145.501 84.7401 143.943 84.7401H142.82V78.1692ZM164.762 72.876C158.858 72.876 156.286 76.1249 156.286 80.25V92.041C156.286 97.2612 158.93 100.291 164.726 100.291C170.595 100.291 173.166 97.2612 173.166 92.041V80.2865C173.166 76.1979 170.667 72.876 164.762 72.876ZM164.726 77.6946C165.777 77.6946 166.9 78.3517 166.9 79.8484V93.1362C166.9 94.7059 165.777 95.4725 164.726 95.4725C163.639 95.4725 162.553 94.7059 162.553 93.1362V79.8484C162.553 78.3517 163.639 77.6946 164.726 77.6946ZM176.527 73.4601V99.6705H182.504V90.4348C182.504 86.8938 182.287 80.8705 182.178 79.0453H182.215L186.091 99.6705H190.437L194.313 79.0453H194.349C194.204 81.2356 194.023 87.9525 194.023 90.4713V99.6705H200V73.4601H191.271L189.242 84.083C188.88 85.9447 188.59 89.9968 188.3 92.3696H188.228C187.938 89.8872 187.721 86.2368 187.286 84.083L185.257 73.4601H176.527Z" fill="white"/>
</svg>
